<svg xmlns="http://www.w3.org/2000/svg" viewBox="0 0 88.99 108.85"><defs><style>.cls-1{isolation:isolate;}.cls-2{fill:#21b198;}.cls-3{fill:#432216;}.cls-4{fill:#38cca2;}.cls-5{fill:#1c9681;}.cls-6{fill:#e0e0e0;mix-blend-mode:multiply;}</style></defs><title>Asset 2</title><g class="cls-1"><g id="Layer_2" data-name="Layer 2"><g id="OBJECTS"><polygon class="cls-2" points="13.41 84.05 27.34 59.29 20.81 58.79 31.26 42.62 24.73 42.11 38.66 23.92 32.56 23.41 46.05 0.17 46.2 0.75 46.21 0 59.7 23.24 53.61 23.75 67.54 41.94 61.01 42.44 71.45 58.61 64.92 59.12 78.85 83.88 67.41 83.73 67.42 83.78 13.41 84.05"/><rect class="cls-3" x="43.64" y="78.18" width="4.99" height="24.96"/><polygon class="cls-4" points="0 93.97 10.27 75.73 5.45 75.35 13.15 63.44 8.34 63.06 18.61 49.66 14.12 49.28 24.06 32.15 24.17 32.58 24.17 32.02 34.12 49.16 29.63 49.53 39.89 62.94 35.08 63.31 42.78 75.23 37.97 75.6 48.23 93.85 39.8 93.74 39.81 93.77 0 93.97"/><rect class="cls-3" x="22.28" y="89.48" width="3.68" height="13.49"/><polygon class="cls-5" points="49.25 95.56 57.71 80.53 53.74 80.22 60.09 70.4 56.12 70.09 64.58 59.05 60.88 58.74 69.07 44.63 69.16 44.98 69.16 44.52 77.36 58.64 73.66 58.95 82.11 69.99 78.15 70.3 84.49 80.11 80.53 80.42 88.98 95.45 82.04 95.36 82.04 95.39 49.25 95.56"/><rect class="cls-3" x="67.6" y="91.85" width="3.03" height="11.11"/><ellipse class="cls-6" cx="45.98" cy="104.02" rx="28.68" ry="4.83"/></g></g></g></svg>