<?xml version="1.0" standalone="no"?>
<!DOCTYPE svg PUBLIC "-//W3C//DTD SVG 20010904//EN"
 "http://www.w3.org/TR/2001/REC-SVG-20010904/DTD/svg10.dtd">
<svg version="1.0" xmlns="http://www.w3.org/2000/svg"
 width="872.000000pt" height="872.000000pt" viewBox="0 0 872.000000 872.000000"
 preserveAspectRatio="xMidYMid meet">
<metadata>
Created by potrace 1.11, written by Peter Selinger 2001-2013
</metadata>
<g transform="translate(0.000000,872.000000) scale(0.100000,-0.100000)"
fill="#000000" stroke="none">
<path d="M4500 8707 c0 -10 -4 -16 -8 -13 -4 3 -24 -22 -43 -56 -18 -33 -39
-67 -44 -76 -6 -10 -28 -48 -50 -87 -21 -38 -55 -97 -75 -130 -20 -33 -48 -80
-62 -105 -40 -70 -244 -423 -320 -551 -37 -64 -68 -121 -68 -127 0 -5 -4 -12
-9 -14 -7 -2 -75 -116 -141 -236 -13 -24 -92 -159 -127 -217 -7 -11 -15 -27
-19 -35 -4 -8 -25 -43 -46 -78 -21 -34 -38 -65 -38 -68 0 -3 -9 -19 -20 -34
-11 -16 -17 -31 -13 -33 5 -3 51 -8 103 -12 52 -4 111 -9 130 -11 38 -3 156
-12 208 -16 17 -1 32 -5 32 -8 0 -4 -36 -52 -79 -109 -44 -56 -88 -114 -98
-128 -10 -14 -39 -53 -66 -87 -26 -33 -55 -71 -65 -84 -9 -13 -24 -31 -32 -40
-8 -10 -26 -33 -40 -52 -14 -19 -80 -107 -147 -195 -68 -88 -138 -179 -156
-203 -17 -23 -39 -51 -47 -61 -8 -11 -41 -54 -74 -95 -32 -42 -62 -76 -65 -76
-3 0 -17 21 -31 48 -14 26 -48 85 -76 132 -28 47 -62 106 -76 130 -55 98 -99
170 -104 170 -3 0 -3 -4 0 -9 3 -5 0 -11 -8 -14 -8 -3 -20 -17 -28 -31 -15
-28 -141 -247 -175 -304 -13 -20 -26 -44 -30 -52 -4 -8 -40 -70 -80 -138 -40
-68 -73 -128 -73 -133 0 -5 -4 -9 -10 -9 -5 0 -10 -6 -10 -14 0 -8 -6 -21 -12
-28 -7 -7 -23 -31 -35 -53 -11 -22 -30 -56 -41 -75 -12 -19 -40 -69 -63 -110
-23 -41 -56 -95 -73 -120 -17 -25 -30 -47 -30 -50 1 -3 -4 -14 -11 -25 -45
-74 -115 -198 -115 -206 0 -5 10 -9 23 -10 35 -2 85 -6 172 -14 44 -4 94 -8
110 -9 17 -1 31 -5 33 -9 1 -4 -33 -53 -75 -108 -43 -56 -85 -111 -93 -123 -8
-11 -27 -37 -42 -56 -16 -19 -32 -39 -36 -45 -4 -5 -44 -57 -87 -115 -44 -58
-82 -107 -85 -110 -3 -3 -41 -52 -85 -110 -43 -58 -82 -106 -87 -108 -4 -2 -8
-8 -8 -13 0 -6 -13 -24 -30 -42 -16 -18 -30 -35 -30 -39 0 -5 -8 -16 -17 -26
-10 -11 -27 -32 -38 -47 -11 -16 -24 -33 -30 -39 -28 -31 -65 -86 -58 -87 4
-1 24 -3 43 -4 19 -1 76 -6 125 -10 50 -5 102 -8 118 -8 15 -1 27 -4 27 -7 0
-4 13 -5 29 -2 26 4 29 2 24 -17 -3 -12 -9 -21 -14 -21 -5 0 -9 -4 -9 -10 0
-11 -62 -103 -72 -108 -5 -2 -8 -8 -8 -13 0 -6 -22 -43 -50 -84 -27 -41 -50
-77 -50 -80 0 -3 -5 -11 -11 -18 -22 -25 -176 -267 -170 -267 3 0 1 -4 -5 -8
-13 -9 -74 -101 -74 -112 0 -4 -3 -10 -8 -12 -9 -4 -92 -136 -92 -148 0 -4 -6
-10 -14 -13 -7 -3 -16 -15 -19 -26 -5 -19 -1 -21 36 -22 23 -1 53 -2 67 -4 14
-1 68 -6 120 -10 92 -7 142 -12 147 -14 2 -1 -10 -23 -25 -50 -137 -248 -183
-329 -230 -411 -54 -94 -124 -218 -166 -295 -30 -55 -103 -183 -125 -220 -10
-16 -33 -59 -52 -95 -19 -36 -36 -67 -40 -70 -3 -3 -31 -52 -62 -110 -32 -58
-62 -112 -67 -120 -6 -8 -14 -25 -19 -37 -6 -11 -15 -24 -21 -28 -5 -3 -8 -10
-5 -14 2 -5 280 -7 617 -4 593 3 644 3 698 -1 14 -1 32 2 41 6 9 4 19 4 23 1
9 -9 116 -10 116 -1 0 4 13 3 30 -2 16 -5 32 -5 34 -1 5 8 70 5 93 -3 7 -3 13
-2 13 2 0 4 14 7 30 7 17 0 30 -2 30 -5 0 -3 12 -6 27 -5 l28 0 0 -294 c0
-190 -3 -294 -10 -296 -261 -78 -358 -128 -384 -197 -33 -89 144 -185 474
-257 50 -11 104 -22 120 -25 238 -38 286 -45 345 -51 56 -6 142 -16 175 -20
17 -3 62 -7 100 -10 39 -3 97 -7 130 -10 291 -23 479 -29 950 -29 471 0 656 5
945 29 36 3 94 8 130 10 36 3 85 8 110 11 25 3 63 7 85 9 45 5 127 14 165 19
14 2 39 6 55 9 17 4 51 9 76 12 108 12 386 74 494 110 144 49 235 116 235 174
0 58 -91 122 -249 173 l-71 23 -1 50 c-2 198 1 428 6 433 5 5 831 15 960 11
186 -5 487 -4 496 2 8 5 8 8 0 13 -6 4 -19 24 -29 44 -10 20 -130 235 -266
477 -137 242 -256 454 -265 470 -9 17 -18 32 -21 35 -3 3 -18 30 -33 60 -16
30 -33 63 -40 72 -6 9 -9 20 -5 23 3 3 39 8 79 11 41 2 101 6 134 9 33 2 61 4
63 5 2 2 13 6 28 9 3 0 -7 18 -23 39 -16 20 -40 55 -53 77 -13 22 -28 42 -32
43 -4 2 -8 8 -8 12 0 5 -28 52 -62 104 -35 52 -90 137 -122 188 -33 51 -90
140 -128 197 -37 57 -68 107 -68 112 0 5 10 9 23 10 12 0 43 2 70 5 26 2 68 6
95 8 26 3 62 5 80 5 17 1 32 4 32 9 0 6 -114 158 -269 357 -21 28 -40 54 -42
60 -2 5 -13 19 -24 31 -24 26 -27 31 -85 109 -25 33 -49 65 -55 71 -5 6 -19
23 -30 38 -11 16 -25 33 -30 40 -34 37 -126 168 -122 172 3 3 38 7 78 10 41 3
92 7 114 9 22 2 52 4 67 4 l28 1 -45 76 c-25 42 -45 80 -45 85 0 5 -4 9 -10 9
-5 0 -9 3 -8 8 1 4 -5 18 -14 32 -17 27 -59 99 -147 253 -10 17 -32 56 -50 85
-17 29 -31 57 -31 62 0 6 -4 10 -10 10 -5 0 -10 4 -10 9 0 5 -18 39 -40 75
-22 36 -40 70 -40 76 0 5 -3 10 -8 10 -4 0 -13 15 -21 33 -8 17 -17 34 -20 37
-3 3 -16 24 -29 47 -12 23 -46 82 -75 132 l-53 91 -21 -28 c-11 -15 -30 -45
-42 -67 -23 -43 -30 -55 -76 -130 -17 -27 -39 -66 -48 -85 -20 -40 -39 -73
-48 -80 -3 -3 -8 -13 -12 -22 -3 -10 -10 -18 -14 -18 -4 0 -35 43 -68 96 -33
53 -64 101 -70 107 -5 7 -16 24 -24 40 -8 15 -18 27 -23 27 -4 0 -8 5 -8 10 0
6 -38 68 -85 139 -47 72 -85 133 -85 136 0 4 -7 13 -15 22 -21 21 -16 24 52
28 32 2 83 7 113 9 58 6 245 20 328 25 10 1 -147 222 -178 251 -3 3 -25 32
-49 65 -24 33 -49 65 -55 70 -6 6 -15 18 -21 27 -5 9 -63 84 -127 168 -65 83
-118 155 -118 160 0 4 -4 10 -8 12 -5 2 -46 53 -92 113 -86 113 -122 160 -141
183 -5 6 -31 40 -57 75 -26 34 -94 122 -150 196 -56 74 -101 136 -99 137 1 2
34 6 72 9 117 9 187 15 250 21 33 3 80 7 105 8 39 2 45 5 42 21 -2 11 -7 22
-12 25 -4 3 -15 20 -24 38 -16 30 -315 549 -336 582 -5 8 -19 33 -31 55 -12
22 -24 42 -28 45 -3 3 -15 23 -27 45 -12 22 -76 135 -144 250 -67 116 -130
224 -140 240 -10 17 -73 127 -141 245 -68 118 -126 217 -129 220 -5 5 -25 39
-47 80 -10 19 -13 21 -13 7z m-1204 -3408 c3 -6 -3 -21 -15 -33 l-22 -21 -5
23 c-4 12 -10 22 -15 22 -5 0 -9 5 -9 10 0 14 57 13 66 -1z m1484 -3302 c0 -5
5 -5 11 -1 17 10 89 11 89 1 0 -4 5 -5 12 -1 17 11 138 11 138 1 0 -5 5 -5 12
-1 12 7 207 13 221 6 7 -3 -30 -81 -64 -132 -9 -14 -32 -54 -51 -90 -20 -36
-46 -83 -59 -105 -12 -22 -34 -61 -48 -86 -14 -26 -64 -114 -110 -195 -46 -82
-98 -174 -114 -204 -17 -30 -39 -68 -49 -85 -10 -16 -18 -32 -18 -35 0 -3 330
-4 733 -2 l733 3 -1 -213 c-1 -141 -4 -212 -11 -211 -6 1 -32 4 -59 8 -26 3
-50 7 -54 9 -3 2 -33 7 -66 11 -32 3 -62 8 -65 10 -3 1 -32 6 -65 9 -33 3 -78
8 -100 11 -64 7 -147 16 -190 20 -229 20 -312 25 -431 30 -57 2 -107 5 -111 7
-4 2 -87 5 -183 7 -96 1 -177 5 -179 7 -3 3 -5 277 -5 610 -1 455 2 607 11
612 17 10 73 9 73 -1z m-489 -7 c1 -3 3 -31 3 -62 2 -59 -7 -75 -20 -35 -4 12
-17 37 -30 56 -13 19 -21 38 -18 43 6 9 63 7 65 -2z m1 -793 c3 -7 4 -104 4
-216 -1 -196 -2 -204 -21 -207 -11 -1 -103 -5 -205 -8 -202 -6 -356 -13 -448
-20 -33 -3 -100 -8 -149 -11 -48 -4 -104 -9 -123 -11 -19 -2 -55 -6 -80 -8
-136 -14 -150 -16 -285 -37 -102 -15 -102 -15 -107 37 -2 25 0 48 4 50 3 2 3
18 -2 34 -5 16 -5 32 -1 35 5 2 5 23 1 45 -4 22 -4 40 0 40 4 0 4 16 0 35 -4
19 -5 35 -1 35 7 0 5 94 -3 115 -3 8 -1 17 4 20 5 3 5 18 0 35 -6 22 -5 32 5
37 7 5 326 9 708 10 530 1 696 -1 699 -10z"/>
</g>
</svg>
